<svg xmlns="http://www.w3.org/2000/svg" viewBox="0 0 100 100">
  <defs>
    <filter id="headerGlow" x="-20%" y="-20%" width="140%" height="140%">
      <feGaussianBlur stdDeviation="1" result="glow"/>
      <feFlood floodColor="#ff0000" floodOpacity="0.2" result="coloredGlow"/>
      <feComposite operator="in" in="coloredGlow" in2="glow"/>
      <feMerge>
        <feMergeNode in="coloredGlow"/>
        <feMergeNode in="SourceGraphic"/>
      </feMerge>
    </filter>
  </defs>

  <!-- Circular background -->
  <circle cx="50" cy="50" r="48" fill="#000000"/>
  <circle cx="50" cy="50" r="47" stroke="white" stroke-width="1" fill="none" opacity="0.8"/>

  <!-- Centered and scaled Torii gate -->
  <g filter="url(#headerGlow)" transform="translate(-320 -25) scale(1.5)">
    <!-- Main top beam with oni horns -->
    <path 
      d="M300 75
         L350 65
         L370 50 L380 65  /* Left horn */
         L400 62
         L420 65 L430 50  /* Right horn */
         L450 65
         L500 75
         L450 72
         L430 57 L420 72  /* Right horn bottom */
         L400 69
         L380 72 L370 57  /* Left horn bottom */
         L350 72
         Z" 
      fill="white" 
      opacity="0.95"
    />
    
    <!-- Connected bottom beam with fangs -->
    <path 
      d="M305 88
         L350 85
         L365 92 L380 85 L395 92  /* Left fangs */
         L400 85
         L405 92 L420 85 L435 92  /* Right fangs */
         L450 85
         L495 88
         L450 86
         L435 93 L420 86 L405 93  /* Right fangs bottom */
         L400 86
         L395 93 L380 86 L365 93  /* Left fangs bottom */
         L350 86
         Z" 
      fill="white" 
      opacity="0.9"
    />
    
    <!-- Connected pillars -->
    <path d="M350 65 L355 70 L350 115 L345 70 Z" fill="white" opacity="0.9"/>
    <path d="M450 65 L455 70 L450 115 L445 70 Z" fill="white" opacity="0.9"/>
    
    <!-- Subtle connecting elements -->
    <path 
      d="M350 72 Q400 69 450 72" 
      stroke="white" 
      strokeWidth="1" 
      fill="none" 
      opacity="0.7"
    />
    <path 
      d="M350 86 Q400 83 450 86" 
      stroke="white" 
      strokeWidth="1" 
      fill="none" 
      opacity="0.7"
    />
  </g>
</svg>
